<svg width="136" height="54" viewBox="0 0 136 54" fill="none" xmlns="http://www.w3.org/2000/svg">
<g filter="url(#filter0_d_418_72)">
<mask id="path-1-outside-1_418_72" maskUnits="userSpaceOnUse" x="0" y="0" width="134" height="52" fill="black">
<rect fill="white" width="134" height="52"/>
<path d="M4.0552 14.975L3.65938 12.531L6.98671 7.799L11.3778 1.364H14.1361L8.03809 10.048L7.33305 10.763L4.0552 14.975ZM1.82874 20.266V1.364H4.12942V20.266H1.82874ZM11.8973 20.266L6.24455 10.113L8.03809 8.826L14.4701 20.266H11.8973ZM14.5965 20.266L20.4224 1.364H23.5889L29.3901 20.266H26.9657L25.2835 14.585L26.607 15.573H17.664L18.5299 13.454H25.9885L25.2464 14.455L23.0446 6.928L22.0304 3.119H21.9562L20.9542 6.928L17.0332 20.266H14.5965ZM36.9752 20.63C35.6228 20.63 34.4642 20.2227 33.4994 19.408C32.5346 18.5933 31.7966 17.4407 31.2853 15.95C30.7741 14.4593 30.5184 12.7043 30.5184 10.685C30.5184 8.735 30.7823 7.03633 31.3101 5.589C31.8461 4.133 32.6047 3.00633 33.586 2.209C34.5673 1.403 35.7218 1 37.0494 1C38.2368 1 39.2552 1.26867 40.1046 1.806C40.9622 2.33467 41.6219 3.119 42.0837 4.159C42.5537 5.199 42.8052 6.49033 42.8382 8.033H40.3767C40.3355 7.01033 40.1953 6.14367 39.9562 5.433C39.7253 4.71367 39.3748 4.16767 38.9048 3.795C38.443 3.42233 37.8369 3.236 37.0865 3.236C36.1629 3.236 35.3919 3.51767 34.7735 4.081C34.155 4.64433 33.685 5.48067 33.3634 6.59C33.05 7.69067 32.8933 9.05134 32.8933 10.672C32.8933 13.09 33.252 14.9837 33.9695 16.353C34.6951 17.7223 35.73 18.407 37.0741 18.407C37.7998 18.407 38.3976 18.2467 38.8677 17.926C39.3377 17.5967 39.6964 17.1677 39.9438 16.639C40.1912 16.1017 40.3396 15.521 40.3891 14.897H42.7392C42.6898 15.833 42.5084 16.6607 42.195 17.38C41.8899 18.0907 41.4776 18.6887 40.9581 19.174C40.4468 19.6507 39.8531 20.0147 39.1769 20.266C38.5007 20.5087 37.7668 20.63 36.9752 20.63ZM46.4403 20.266V1.364H56.7686V3.457H47.7391L48.741 2.456V10.009L47.7391 9.307H55.8904V11.4H48.0854L48.741 10.633V19.382L47.7391 18.134H57.3005V20.266H46.4403ZM65.4298 13.922L59.4802 1.364H62.1148L64.3784 6.525L66.3946 11.14H66.5801L68.6087 6.538L70.8846 1.364H73.5069L67.5697 13.922H65.4298ZM65.3679 20.266V12.674H67.6191V20.266H65.3679ZM89.2955 20.266L94.6143 10.854L89.2584 1.364H92.1033L94.0948 5.342L96.1852 9.294L98.2384 5.355L100.18 1.364H103.062L97.7189 10.854L103.038 20.266H100.156L98.2384 16.405L96.148 12.349L94.0948 16.418L92.1404 20.266H89.2955ZM103.597 20.266L109.422 1.364H112.589L118.39 20.266H115.966L114.284 14.585L115.607 15.573H106.664L107.53 13.454H114.989L114.246 14.455L112.045 6.928L111.03 3.119H110.956L109.954 6.928L106.033 20.266H103.597ZM119.469 20.266L119.853 1.364H123.168L125.135 9.047L125.827 12.31H125.864L126.569 9.047L128.474 1.364H131.802L132.185 20.266H130.082L129.884 12.778L129.971 3.262H129.822L128.771 7.565L126.606 15.235H125.147L122.871 7.565L121.832 3.262H121.671L121.77 12.778L121.572 20.266H119.469ZM4.45102 46.3353L4.47575 41.1873L6.50431 37.8333L10.0172 31.6973H14.4948L8.92868 40.2643L7.56806 41.9023L4.45102 46.3353ZM1 50.5993V31.6973H4.89631V50.5993H1ZM10.3759 50.5993L5.81163 41.0313L8.49575 38.6393L14.8412 50.5993H10.3759ZM20.509 50.5993V31.6973H25.4319L28.7592 42.1493L30.1075 46.8813H30.1817L29.4643 40.3423V31.6973H33.1256V50.5993H28.1531L24.8506 40.1473L23.5642 35.7663H23.4528L24.1702 42.1623V50.5993H20.509ZM40.7231 50.5993V47.1023H44.5328V36.7673C44.5328 36.2473 44.6235 35.8703 44.8049 35.6363C44.9863 35.4023 45.2626 35.255 45.6336 35.1943H40.7231V31.6973H52.2264V35.1943H48.4044V45.5293C48.4044 46.0493 48.3136 46.4263 48.1322 46.6603C47.9508 46.8857 47.6746 47.033 47.3035 47.1023H52.2264V50.5993H40.7231ZM60.566 50.5993V31.6973H72.2178L72.2425 35.3503H62.1245L64.4623 32.9193V41.1743L62.1369 39.6013H71.3025L71.2901 43.1373H63.0398L64.4623 41.9283V50.5993H60.566ZM80.2234 50.5993V31.6973H91.8752L91.8999 35.3503H81.7819L84.1197 32.9193V41.1743L81.7943 39.6013H90.9599L90.9475 43.1373H82.6972L84.1197 41.9283V50.5993H80.2234ZM99.7571 50.5993V31.6973H111.223V35.3113H102.342L103.567 34.3493V39.9653L102.342 39.1463H110.382V42.5783H102.503L103.567 41.7723V47.8563L102.342 46.8813H111.619V50.5993H99.7571ZM118.796 50.5993V31.6973H123.719L127.047 42.1493L128.395 46.8813H128.469L127.752 40.3423V31.6973H131.413V50.5993H126.44L123.138 40.1473L121.852 35.7663H121.74L122.458 42.1623V50.5993H118.796Z"/>
</mask>
<path d="M4.0552 14.975L3.65938 12.531L6.98671 7.799L11.3778 1.364H14.1361L8.03809 10.048L7.33305 10.763L4.0552 14.975ZM1.82874 20.266V1.364H4.12942V20.266H1.82874ZM11.8973 20.266L6.24455 10.113L8.03809 8.826L14.4701 20.266H11.8973ZM14.5965 20.266L20.4224 1.364H23.5889L29.3901 20.266H26.9657L25.2835 14.585L26.607 15.573H17.664L18.5299 13.454H25.9885L25.2464 14.455L23.0446 6.928L22.0304 3.119H21.9562L20.9542 6.928L17.0332 20.266H14.5965ZM36.9752 20.63C35.6228 20.63 34.4642 20.2227 33.4994 19.408C32.5346 18.5933 31.7966 17.4407 31.2853 15.95C30.7741 14.4593 30.5184 12.7043 30.5184 10.685C30.5184 8.735 30.7823 7.03633 31.3101 5.589C31.8461 4.133 32.6047 3.00633 33.586 2.209C34.5673 1.403 35.7218 1 37.0494 1C38.2368 1 39.2552 1.26867 40.1046 1.806C40.9622 2.33467 41.6219 3.119 42.0837 4.159C42.5537 5.199 42.8052 6.49033 42.8382 8.033H40.3767C40.3355 7.01033 40.1953 6.14367 39.9562 5.433C39.7253 4.71367 39.3748 4.16767 38.9048 3.795C38.443 3.42233 37.8369 3.236 37.0865 3.236C36.1629 3.236 35.3919 3.51767 34.7735 4.081C34.155 4.64433 33.685 5.48067 33.3634 6.59C33.05 7.69067 32.8933 9.05134 32.8933 10.672C32.8933 13.09 33.252 14.9837 33.9695 16.353C34.6951 17.7223 35.73 18.407 37.0741 18.407C37.7998 18.407 38.3976 18.2467 38.8677 17.926C39.3377 17.5967 39.6964 17.1677 39.9438 16.639C40.1912 16.1017 40.3396 15.521 40.3891 14.897H42.7392C42.6898 15.833 42.5084 16.6607 42.195 17.38C41.8899 18.0907 41.4776 18.6887 40.9581 19.174C40.4468 19.6507 39.8531 20.0147 39.1769 20.266C38.5007 20.5087 37.7668 20.63 36.9752 20.63ZM46.4403 20.266V1.364H56.7686V3.457H47.7391L48.741 2.456V10.009L47.7391 9.307H55.8904V11.4H48.0854L48.741 10.633V19.382L47.7391 18.134H57.3005V20.266H46.4403ZM65.4298 13.922L59.4802 1.364H62.1148L64.3784 6.525L66.3946 11.14H66.5801L68.6087 6.538L70.8846 1.364H73.5069L67.5697 13.922H65.4298ZM65.3679 20.266V12.674H67.6191V20.266H65.3679ZM89.2955 20.266L94.6143 10.854L89.2584 1.364H92.1033L94.0948 5.342L96.1852 9.294L98.2384 5.355L100.18 1.364H103.062L97.7189 10.854L103.038 20.266H100.156L98.2384 16.405L96.148 12.349L94.0948 16.418L92.1404 20.266H89.2955ZM103.597 20.266L109.422 1.364H112.589L118.39 20.266H115.966L114.284 14.585L115.607 15.573H106.664L107.53 13.454H114.989L114.246 14.455L112.045 6.928L111.03 3.119H110.956L109.954 6.928L106.033 20.266H103.597ZM119.469 20.266L119.853 1.364H123.168L125.135 9.047L125.827 12.31H125.864L126.569 9.047L128.474 1.364H131.802L132.185 20.266H130.082L129.884 12.778L129.971 3.262H129.822L128.771 7.565L126.606 15.235H125.147L122.871 7.565L121.832 3.262H121.671L121.77 12.778L121.572 20.266H119.469ZM4.45102 46.3353L4.47575 41.1873L6.50431 37.8333L10.0172 31.6973H14.4948L8.92868 40.2643L7.56806 41.9023L4.45102 46.3353ZM1 50.5993V31.6973H4.89631V50.5993H1ZM10.3759 50.5993L5.81163 41.0313L8.49575 38.6393L14.8412 50.5993H10.3759ZM20.509 50.5993V31.6973H25.4319L28.7592 42.1493L30.1075 46.8813H30.1817L29.4643 40.3423V31.6973H33.1256V50.5993H28.1531L24.8506 40.1473L23.5642 35.7663H23.4528L24.1702 42.1623V50.5993H20.509ZM40.7231 50.5993V47.1023H44.5328V36.7673C44.5328 36.2473 44.6235 35.8703 44.8049 35.6363C44.9863 35.4023 45.2626 35.255 45.6336 35.1943H40.7231V31.6973H52.2264V35.1943H48.4044V45.5293C48.4044 46.0493 48.3136 46.4263 48.1322 46.6603C47.9508 46.8857 47.6746 47.033 47.3035 47.1023H52.2264V50.5993H40.7231ZM60.566 50.5993V31.6973H72.2178L72.2425 35.3503H62.1245L64.4623 32.9193V41.1743L62.1369 39.6013H71.3025L71.2901 43.1373H63.0398L64.4623 41.9283V50.5993H60.566ZM80.2234 50.5993V31.6973H91.8752L91.8999 35.3503H81.7819L84.1197 32.9193V41.1743L81.7943 39.6013H90.9599L90.9475 43.1373H82.6972L84.1197 41.9283V50.5993H80.2234ZM99.7571 50.5993V31.6973H111.223V35.3113H102.342L103.567 34.3493V39.9653L102.342 39.1463H110.382V42.5783H102.503L103.567 41.7723V47.8563L102.342 46.8813H111.619V50.5993H99.7571ZM118.796 50.5993V31.6973H123.719L127.047 42.1493L128.395 46.8813H128.469L127.752 40.3423V31.6973H131.413V50.5993H126.44L123.138 40.1473L121.852 35.7663H121.74L122.458 42.1623V50.5993H118.796Z" fill="#05D58A"/>
<path d="M4.0552 14.975L3.65938 12.531L6.98671 7.799L11.3778 1.364H14.1361L8.03809 10.048L7.33305 10.763L4.0552 14.975ZM1.82874 20.266V1.364H4.12942V20.266H1.82874ZM11.8973 20.266L6.24455 10.113L8.03809 8.826L14.4701 20.266H11.8973ZM14.5965 20.266L20.4224 1.364H23.5889L29.3901 20.266H26.9657L25.2835 14.585L26.607 15.573H17.664L18.5299 13.454H25.9885L25.2464 14.455L23.0446 6.928L22.0304 3.119H21.9562L20.9542 6.928L17.0332 20.266H14.5965ZM36.9752 20.63C35.6228 20.63 34.4642 20.2227 33.4994 19.408C32.5346 18.5933 31.7966 17.4407 31.2853 15.95C30.7741 14.4593 30.5184 12.7043 30.5184 10.685C30.5184 8.735 30.7823 7.03633 31.3101 5.589C31.8461 4.133 32.6047 3.00633 33.586 2.209C34.5673 1.403 35.7218 1 37.0494 1C38.2368 1 39.2552 1.26867 40.1046 1.806C40.9622 2.33467 41.6219 3.119 42.0837 4.159C42.5537 5.199 42.8052 6.49033 42.8382 8.033H40.3767C40.3355 7.01033 40.1953 6.14367 39.9562 5.433C39.7253 4.71367 39.3748 4.16767 38.9048 3.795C38.443 3.42233 37.8369 3.236 37.0865 3.236C36.1629 3.236 35.3919 3.51767 34.7735 4.081C34.155 4.64433 33.685 5.48067 33.3634 6.59C33.05 7.69067 32.8933 9.05134 32.8933 10.672C32.8933 13.09 33.252 14.9837 33.9695 16.353C34.6951 17.7223 35.73 18.407 37.0741 18.407C37.7998 18.407 38.3976 18.2467 38.8677 17.926C39.3377 17.5967 39.6964 17.1677 39.9438 16.639C40.1912 16.1017 40.3396 15.521 40.3891 14.897H42.7392C42.6898 15.833 42.5084 16.6607 42.195 17.38C41.8899 18.0907 41.4776 18.6887 40.9581 19.174C40.4468 19.6507 39.8531 20.0147 39.1769 20.266C38.5007 20.5087 37.7668 20.63 36.9752 20.63ZM46.4403 20.266V1.364H56.7686V3.457H47.7391L48.741 2.456V10.009L47.7391 9.307H55.8904V11.4H48.0854L48.741 10.633V19.382L47.7391 18.134H57.3005V20.266H46.4403ZM65.4298 13.922L59.4802 1.364H62.1148L64.3784 6.525L66.3946 11.14H66.5801L68.6087 6.538L70.8846 1.364H73.5069L67.5697 13.922H65.4298ZM65.3679 20.266V12.674H67.6191V20.266H65.3679ZM89.2955 20.266L94.6143 10.854L89.2584 1.364H92.1033L94.0948 5.342L96.1852 9.294L98.2384 5.355L100.18 1.364H103.062L97.7189 10.854L103.038 20.266H100.156L98.2384 16.405L96.148 12.349L94.0948 16.418L92.1404 20.266H89.2955ZM103.597 20.266L109.422 1.364H112.589L118.39 20.266H115.966L114.284 14.585L115.607 15.573H106.664L107.53 13.454H114.989L114.246 14.455L112.045 6.928L111.03 3.119H110.956L109.954 6.928L106.033 20.266H103.597ZM119.469 20.266L119.853 1.364H123.168L125.135 9.047L125.827 12.31H125.864L126.569 9.047L128.474 1.364H131.802L132.185 20.266H130.082L129.884 12.778L129.971 3.262H129.822L128.771 7.565L126.606 15.235H125.147L122.871 7.565L121.832 3.262H121.671L121.77 12.778L121.572 20.266H119.469ZM4.45102 46.3353L4.47575 41.1873L6.50431 37.8333L10.0172 31.6973H14.4948L8.92868 40.2643L7.56806 41.9023L4.45102 46.3353ZM1 50.5993V31.6973H4.89631V50.5993H1ZM10.3759 50.5993L5.81163 41.0313L8.49575 38.6393L14.8412 50.5993H10.3759ZM20.509 50.5993V31.6973H25.4319L28.7592 42.1493L30.1075 46.8813H30.1817L29.4643 40.3423V31.6973H33.1256V50.5993H28.1531L24.8506 40.1473L23.5642 35.7663H23.4528L24.1702 42.1623V50.5993H20.509ZM40.7231 50.5993V47.1023H44.5328V36.7673C44.5328 36.2473 44.6235 35.8703 44.8049 35.6363C44.9863 35.4023 45.2626 35.255 45.6336 35.1943H40.7231V31.6973H52.2264V35.1943H48.4044V45.5293C48.4044 46.0493 48.3136 46.4263 48.1322 46.6603C47.9508 46.8857 47.6746 47.033 47.3035 47.1023H52.2264V50.5993H40.7231ZM60.566 50.5993V31.6973H72.2178L72.2425 35.3503H62.1245L64.4623 32.9193V41.1743L62.1369 39.6013H71.3025L71.2901 43.1373H63.0398L64.4623 41.9283V50.5993H60.566ZM80.2234 50.5993V31.6973H91.8752L91.8999 35.3503H81.7819L84.1197 32.9193V41.1743L81.7943 39.6013H90.9599L90.9475 43.1373H82.6972L84.1197 41.9283V50.5993H80.2234ZM99.7571 50.5993V31.6973H111.223V35.3113H102.342L103.567 34.3493V39.9653L102.342 39.1463H110.382V42.5783H102.503L103.567 41.7723V47.8563L102.342 46.8813H111.619V50.5993H99.7571ZM118.796 50.5993V31.6973H123.719L127.047 42.1493L128.395 46.8813H128.469L127.752 40.3423V31.6973H131.413V50.5993H126.44L123.138 40.1473L121.852 35.7663H121.74L122.458 42.1623V50.5993H118.796Z" stroke="#027149" stroke-width="2" mask="url(#path-1-outside-1_418_72)"/>
</g>
<defs>
<filter id="filter0_d_418_72" x="0" y="0" width="135.205" height="53.5993" filterUnits="userSpaceOnUse" color-interpolation-filters="sRGB">
<feFlood flood-opacity="0" result="BackgroundImageFix"/>
<feColorMatrix in="SourceAlpha" type="matrix" values="0 0 0 0 0 0 0 0 0 0 0 0 0 0 0 0 0 0 127 0" result="hardAlpha"/>
<feOffset dx="2" dy="2"/>
<feComposite in2="hardAlpha" operator="out"/>
<feColorMatrix type="matrix" values="0 0 0 0 0.00784314 0 0 0 0 0.443137 0 0 0 0 0.286275 0 0 0 1 0"/>
<feBlend mode="normal" in2="BackgroundImageFix" result="effect1_dropShadow_418_72"/>
<feBlend mode="normal" in="SourceGraphic" in2="effect1_dropShadow_418_72" result="shape"/>
</filter>
</defs>
</svg>
