<svg width="490" height="490" viewBox="0 0 490 490" fill="none" xmlns="http://www.w3.org/2000/svg">
<path d="M473.007 247.394L477.197 260.042L473.667 260.86L470.88 251.658L466.712 260.323L463.35 258.972L469.466 247.12L473.007 247.394Z" fill="#05D58A"/>
<path d="M479.704 280.301L460.143 277.188L460.761 273.3L469.389 274.674L470.214 269.491L461.586 268.118L462.205 264.231L481.767 267.344L481.148 271.231L473.437 270.004L472.612 275.187L480.323 276.414L479.704 280.301Z" fill="#05D58A"/>
<path d="M476.012 299.556L472.841 298.787L474.07 293.718L457.993 289.817L458.929 285.96L475.006 289.862L476.236 284.793L479.408 285.562L476.012 299.556Z" fill="#05D58A"/>
<path d="M474.115 308.156C473.643 308.158 473.039 308.15 472.304 308.133C471.562 308.136 470.766 308.133 469.916 308.123C469.066 308.113 468.205 308.099 467.335 308.083C466.465 308.066 465.659 308.059 464.917 308.063C465.586 308.552 466.273 309.059 466.977 309.582C467.701 310.112 468.388 310.618 469.038 311.101C469.708 311.591 470.333 312.044 470.915 312.46C471.497 312.876 471.974 313.235 472.347 313.537L471.327 316.637C469.639 316.24 467.995 315.845 466.394 315.454C464.787 315.083 463.2 314.684 461.633 314.259C460.08 313.861 458.513 313.436 456.933 312.983C455.372 312.538 453.775 312.069 452.14 311.577L453.269 308.141L467.832 313.13L460.626 308.202L461.526 305.466L470.22 305.865L455.548 301.21L456.677 297.775C458.197 298.342 459.778 298.929 461.42 299.536C463.055 300.164 464.68 300.788 466.295 301.408C467.91 302.029 469.471 302.643 470.978 303.251C472.479 303.879 473.864 304.48 475.135 305.055L474.115 308.156Z" fill="#05D58A"/>
<path d="M446.265 327.695L451.114 316.23L469.357 323.946L467.812 327.601L452.574 321.156L449.271 328.966L446.265 327.695Z" fill="#05D58A"/>
<path d="M444.859 346.198L445.911 332.903L449.495 333.499L448.454 343.087L455.688 336.709L458.241 339.294L448.012 347.833L444.859 346.198Z" fill="#05D58A"/>
<path d="M436.292 369.243L433.041 382.164L429.623 380.961L432.209 371.7L424.042 376.775L421.93 373.831L433.45 367.111L436.292 369.243Z" fill="#05D58A"/>
<path d="M423.941 400.972L421.495 398.81L424.948 394.901L412.55 383.948L415.177 380.974L427.575 391.928L431.029 388.019L433.475 390.18L423.941 400.972Z" fill="#05D58A"/>
<path d="M407.641 411.303C406.955 410.008 406.277 408.736 405.606 407.487C404.934 406.268 404.292 405.049 403.681 403.831C403.084 402.628 402.525 401.418 402.004 400.202C401.467 399 400.984 397.792 400.553 396.577C400.253 395.682 400.034 394.871 399.896 394.144C399.743 393.432 399.71 392.767 399.797 392.15C399.853 391.533 400.03 390.948 400.326 390.395C400.608 389.857 401.032 389.314 401.601 388.766C402.077 388.307 402.551 387.923 403.025 387.615C403.483 387.322 403.901 387.11 404.281 386.981L406.039 389.865C405.599 390.023 405.241 390.19 404.966 390.366C404.661 390.542 404.371 390.763 404.094 391.029C403.541 391.562 403.274 392.176 403.291 392.87C403.309 393.565 403.462 394.261 403.751 394.961C405.73 395.66 407.894 396.552 410.243 397.636C412.607 398.735 415.08 400.07 417.661 401.641L414.713 404.484C414.027 404.049 413.288 403.59 412.497 403.108C411.691 402.641 410.877 402.181 410.055 401.729C409.234 401.276 408.412 400.839 407.59 400.417C406.767 400.025 405.982 399.671 405.233 399.355C405.598 400.041 405.992 400.772 406.415 401.549C406.853 402.342 407.299 403.127 407.753 403.905C408.221 404.698 408.697 405.484 409.181 406.262C409.649 407.055 410.104 407.802 410.543 408.504L407.641 411.303Z" fill="#05D58A"/>
<path d="M392.132 415.286C392.985 416.325 393.888 417.005 394.842 417.326C395.809 417.664 396.713 417.488 397.554 416.797C397.785 416.608 398.019 416.388 398.256 416.139C398.506 415.906 398.715 415.707 398.883 415.541L393.645 409.159C393.339 409.19 392.987 409.299 392.59 409.487C392.192 409.676 391.829 409.905 391.499 410.176C390.773 410.771 390.474 411.5 390.602 412.361C390.742 413.239 391.253 414.214 392.132 415.286ZM389.122 417.922C388.391 417.032 387.813 416.126 387.388 415.205C386.977 414.301 386.738 413.421 386.671 412.565C386.617 411.726 386.757 410.921 387.09 410.151C387.424 409.38 387.97 408.684 388.729 408.061C389.504 407.425 390.459 406.958 391.595 406.661L388.002 402.283L391.044 399.786L403.631 415.122C403.219 415.764 402.656 416.474 401.943 417.252C401.213 418.044 400.453 418.765 399.661 419.415C397.863 420.89 396.04 421.476 394.19 421.173C392.34 420.869 390.651 419.786 389.122 417.922Z" fill="#05D58A"/>
<path d="M386.394 420.662C387.152 421.746 387.653 422.815 387.896 423.869C388.138 424.923 388.178 425.91 388.016 426.831C387.865 427.77 387.538 428.623 387.035 429.392C386.532 430.161 385.913 430.803 385.179 431.316C383.361 432.588 381.601 433.013 379.899 432.59C378.209 432.184 376.642 430.95 375.199 428.888C375.052 428.678 374.908 428.453 374.766 428.214C374.607 427.987 374.488 427.797 374.407 427.645L382.404 422.049C381.841 421.245 381.062 420.839 380.068 420.832C379.086 420.843 378.07 421.215 377.022 421.949C376.375 422.401 375.812 422.899 375.333 423.443C374.837 423.998 374.436 424.487 374.132 424.908L371.76 422.467C372.185 421.883 372.669 421.31 373.213 420.748C373.744 420.167 374.403 419.602 375.189 419.052C376.238 418.318 377.274 417.788 378.296 417.463C379.313 417.168 380.303 417.075 381.264 417.183C382.22 417.321 383.13 417.674 383.995 418.24C384.86 418.806 385.66 419.614 386.394 420.662ZM379.034 427.727C379.267 428.059 379.531 428.343 379.826 428.579C380.133 428.832 380.469 429.014 380.833 429.124C381.196 429.234 381.575 429.255 381.97 429.187C382.377 429.137 382.8 428.958 383.237 428.653C383.656 428.359 383.974 428.032 384.191 427.672C384.39 427.324 384.509 426.955 384.548 426.563C384.569 426.184 384.53 425.794 384.432 425.394C384.317 425.006 384.161 424.634 383.963 424.277L379.034 427.727Z" fill="#05D58A"/>
<path d="M364.041 430.815C363.471 431.149 363.034 431.48 362.73 431.806C362.419 432.161 362.212 432.505 362.11 432.836C362.019 433.187 362.012 433.512 362.089 433.813C362.159 434.143 362.274 434.446 362.436 434.722C362.641 435.072 362.926 435.326 363.29 435.483C363.654 435.641 364.052 435.729 364.483 435.748C364.926 435.786 365.389 435.774 365.872 435.713C366.367 435.671 366.85 435.61 367.323 435.531C367.946 435.413 368.604 435.312 369.297 435.228C369.989 435.144 370.673 435.151 371.349 435.25C372.006 435.359 372.639 435.594 373.246 435.956C373.864 436.335 374.41 436.93 374.885 437.74C375.823 439.342 376.041 440.895 375.538 442.401C375.017 443.918 373.846 445.21 372.023 446.277C370.974 446.892 369.993 447.306 369.08 447.519C368.148 447.744 367.329 447.865 366.622 447.883L366.08 444.678C366.691 444.666 367.336 444.585 368.014 444.435C368.674 444.295 369.373 444.01 370.109 443.579C371.913 442.522 372.432 441.34 371.666 440.033C371.472 439.702 371.208 439.461 370.873 439.311C370.548 439.18 370.189 439.094 369.794 439.053C369.392 439.042 368.973 439.065 368.537 439.122C368.082 439.191 367.642 439.263 367.217 439.339C366.565 439.449 365.878 439.542 365.156 439.619C364.427 439.725 363.699 439.706 362.972 439.563C362.238 439.449 361.531 439.171 360.852 438.729C360.183 438.304 359.574 437.623 359.024 436.684C358.086 435.083 357.882 433.533 358.414 432.035C358.938 430.566 360.259 429.211 362.375 427.971C363.793 427.141 365.011 426.625 366.03 426.423C367.06 426.24 367.863 426.154 368.437 426.163L369.06 429.507C368.391 429.503 367.64 429.572 366.808 429.714C365.958 429.866 365.035 430.233 364.041 430.815Z" fill="#05D58A"/>
<path d="M356.217 441.356C356.689 442.336 356.979 443.333 357.088 444.346C357.197 445.359 357.087 446.335 356.757 447.275C356.438 448.234 355.885 449.127 355.1 449.955C354.304 450.811 353.234 451.563 351.888 452.211C351.081 452.599 350.323 452.893 349.614 453.093C348.905 453.292 348.149 453.419 347.346 453.473L346.751 450.244C347.2 450.194 347.688 450.101 348.215 449.966C348.732 449.859 349.356 449.63 350.086 449.278C350.932 448.871 351.592 448.423 352.067 447.934C352.532 447.474 352.85 446.977 353.02 446.446C353.2 445.933 353.246 445.39 353.159 444.816C353.072 444.242 352.89 443.667 352.613 443.09C352.011 441.841 351.194 441.027 350.159 440.649C349.106 440.28 347.733 440.503 346.041 441.317C345.484 441.585 344.926 441.901 344.367 442.265C343.789 442.638 343.291 443.031 342.875 443.444L340.954 440.782C341.362 440.349 341.893 439.904 342.549 439.446C343.195 438.969 343.999 438.5 344.96 438.037C346.344 437.371 347.624 436.98 348.799 436.864C349.956 436.758 351.003 436.869 351.943 437.198C352.883 437.527 353.715 438.05 354.438 438.767C355.143 439.493 355.736 440.356 356.217 441.356Z" fill="#05D58A"/>
<path d="M329.662 457.469C329.924 457.437 330.236 457.385 330.597 457.315C330.939 457.253 331.287 457.176 331.641 457.086C332.002 457.016 332.346 456.93 332.672 456.827C332.999 456.725 333.271 456.632 333.49 456.548C334.008 456.349 334.505 456.124 334.98 455.873C335.462 455.642 335.936 455.358 336.4 455.02L332.398 444.593L336.103 443.171L341.137 456.287C340.298 457.02 339.413 457.691 338.482 458.3C337.53 458.916 336.367 459.488 334.993 460.016C334.794 460.092 334.511 460.189 334.145 460.307C333.759 460.432 333.345 460.545 332.904 460.646C332.47 460.767 332.029 460.867 331.58 460.948C331.119 461.057 330.697 461.116 330.312 461.127L329.662 457.469Z" fill="#05D58A"/>
<path d="M319.504 470.134C319.286 469.398 319.349 468.745 319.693 468.176C320.036 467.608 320.536 467.227 321.19 467.033C321.845 466.84 322.471 466.888 323.069 467.179C323.646 467.475 324.043 467.992 324.261 468.728C324.484 469.485 324.435 470.145 324.112 470.708C323.768 471.277 323.269 471.658 322.614 471.851C321.959 472.045 321.333 471.996 320.736 471.706C320.138 471.415 319.728 470.891 319.504 470.134ZM308.582 453.842C309.251 453.244 309.915 452.78 310.574 452.452C311.207 452.109 311.81 451.853 312.383 451.684C313.365 451.394 314.236 451.292 314.995 451.379C315.735 451.472 316.387 451.724 316.954 452.135C317.506 452.572 317.979 453.156 318.372 453.885C318.765 454.614 319.11 455.48 319.407 456.482L320.976 461.791L324.965 460.612L325.89 463.742L318.126 466.037L315.487 457.107C315.233 456.247 314.889 455.648 314.455 455.309C314.007 454.997 313.414 454.95 312.678 455.167C312.33 455.27 311.923 455.435 311.456 455.662C310.995 455.909 310.5 456.267 309.971 456.735L308.582 453.842Z" fill="#05D58A"/>
<path d="M296.94 464.04C297.217 465.355 297.705 466.375 298.402 467.1C299.105 467.846 299.988 468.107 301.053 467.883C301.345 467.821 301.654 467.734 301.979 467.622C302.308 467.531 302.586 467.451 302.811 467.382L301.11 459.303C300.824 459.189 300.461 459.123 300.022 459.107C299.582 459.09 299.154 459.126 298.736 459.214C297.818 459.407 297.216 459.916 296.932 460.739C296.652 461.582 296.655 462.683 296.94 464.04ZM293.053 464.989C292.815 463.862 292.721 462.792 292.769 461.779C292.822 460.787 293.015 459.896 293.35 459.106C293.69 458.336 294.185 457.687 294.837 457.157C295.488 456.628 296.294 456.262 297.255 456.06C298.236 455.853 299.299 455.88 300.444 456.14L299.276 450.598L303.128 449.787L307.217 469.201C306.555 469.58 305.728 469.95 304.736 470.312C303.723 470.678 302.716 470.966 301.714 471.177C299.438 471.656 297.55 471.335 296.049 470.212C294.548 469.089 293.549 467.348 293.053 464.989Z" fill="#05D58A"/>
<path d="M286.204 471.009L289.6 470.574L290.014 473.812L286.618 474.246L287.097 477.992L283.274 479.126L282.714 474.746L276.461 475.545L276.047 472.307L282.3 471.508L281.529 465.477C281.459 464.927 281.349 464.489 281.2 464.164C281.051 463.839 280.869 463.593 280.654 463.427C280.439 463.261 280.19 463.164 279.907 463.136C279.624 463.107 279.313 463.115 278.974 463.158C278.614 463.204 278.288 463.257 277.994 463.316C277.68 463.377 277.387 463.447 277.118 463.525C276.829 463.626 276.544 463.748 276.261 463.892C275.957 464.039 275.636 464.219 275.298 464.435L274.329 461.139C275.01 460.751 275.766 460.439 276.596 460.204C277.405 459.971 278.201 459.805 278.984 459.705C279.894 459.589 280.708 459.56 281.425 459.619C282.142 459.678 282.771 459.888 283.312 460.249C283.853 460.61 284.299 461.155 284.65 461.884C285.004 462.635 285.261 463.634 285.421 464.883L286.204 471.009Z" fill="#05D58A"/>
<path d="M257.654 468.703L269.689 462.956L270.968 466.357L262.147 470.257L271.291 473.325L270.332 476.829L257.818 472.252L257.654 468.703Z" fill="#05D58A"/>
<path d="M232.706 472.812L219.891 476.462L219.223 472.901L228.535 470.506L220.055 465.975L221.547 462.673L233.129 469.285L232.706 472.812Z" fill="#05D58A"/>
<path d="M207.252 479.872C206.144 479.647 205.166 479.318 204.318 478.885C203.47 478.452 202.774 477.909 202.232 477.255C201.69 476.601 201.334 475.832 201.165 474.949C200.97 474.082 200.983 473.105 201.204 472.018C201.432 470.889 201.87 469.911 202.516 469.084C203.163 468.258 204.068 467.712 205.232 467.447C204.986 466.831 204.733 466.149 204.471 465.399C204.205 464.67 203.958 463.902 203.73 463.094C203.498 462.307 203.289 461.513 203.103 460.714C202.891 459.931 202.726 459.19 202.606 458.491L206.652 459.311C206.879 460.663 207.199 461.979 207.615 463.261C208.005 464.559 208.445 465.878 208.935 467.218L210.942 467.625L212.391 460.474L216.249 461.256L212.372 480.387C211.979 480.394 211.556 480.385 211.104 480.358C210.628 480.349 210.157 480.308 209.693 480.236C209.224 480.184 208.779 480.127 208.356 480.063C207.934 479.999 207.566 479.935 207.252 479.872ZM205.118 472.844C204.91 473.868 205.071 474.685 205.601 475.293C206.131 475.901 206.908 476.308 207.932 476.516C208.079 476.546 208.259 476.571 208.472 476.593C208.681 476.635 208.894 476.656 209.112 476.657L210.294 470.824L209.447 470.652C208.13 470.385 207.128 470.443 206.441 470.826C205.749 471.23 205.308 471.903 205.118 472.844Z" fill="#05D58A"/>
<path d="M197.746 465.591C197.38 466.862 196.865 467.924 196.198 468.776C195.532 469.627 194.789 470.28 193.971 470.733C193.147 471.206 192.278 471.489 191.363 471.582C190.449 471.674 189.561 471.597 188.7 471.349C186.567 470.736 185.13 469.635 184.388 468.046C183.641 466.477 183.614 464.483 184.309 462.063C184.38 461.817 184.464 461.564 184.561 461.303C184.638 461.037 184.71 460.825 184.777 460.666L194.158 463.362C194.429 462.419 194.254 461.558 193.634 460.781C193.008 460.024 192.08 459.469 190.85 459.115C190.091 458.897 189.35 458.773 188.626 458.743C187.882 458.706 187.251 458.702 186.732 458.731L187.137 455.351C187.858 455.314 188.608 455.33 189.388 455.399C190.173 455.447 191.027 455.603 191.949 455.868C193.18 456.222 194.243 456.694 195.138 457.284C196.008 457.889 196.703 458.599 197.223 459.415C197.717 460.245 198.016 461.174 198.12 462.203C198.224 463.232 198.099 464.361 197.746 465.591ZM187.625 464.315C187.513 464.704 187.458 465.088 187.46 465.466C187.457 465.864 187.527 466.24 187.67 466.592C187.813 466.943 188.035 467.251 188.336 467.516C188.632 467.8 189.036 468.016 189.549 468.164C190.041 468.305 190.495 468.347 190.911 468.289C191.307 468.225 191.669 468.085 191.997 467.868C192.305 467.646 192.584 467.371 192.834 467.043C193.063 466.71 193.254 466.354 193.407 465.976L187.625 464.315Z" fill="#05D58A"/>
<path d="M175.34 454.36C174.941 454.21 174.551 454.064 174.172 453.922C173.785 453.799 173.444 453.705 173.149 453.64L171.935 456.876C172.16 457.006 172.438 457.145 172.77 457.292C173.095 457.459 173.397 457.596 173.677 457.7C174.056 457.843 174.437 457.952 174.819 458.027C175.193 458.121 175.543 458.161 175.868 458.147C176.172 458.124 176.446 458.033 176.688 457.873C176.93 457.714 177.119 457.454 177.254 457.094C177.493 456.455 177.426 455.906 177.052 455.446C176.67 455.007 176.099 454.645 175.34 454.36ZM171.24 466.288C170.082 465.853 169.176 465.354 168.522 464.789C167.84 464.237 167.363 463.626 167.091 462.954C166.812 462.302 166.707 461.579 166.777 460.785C166.84 460.011 167.036 459.185 167.366 458.306L170.513 449.917C171.098 450 171.949 450.16 173.068 450.397C174.186 450.634 175.405 451 176.723 451.495C177.622 451.832 178.411 452.219 179.09 452.657C179.749 453.086 180.27 453.578 180.655 454.133C181.032 454.707 181.251 455.336 181.314 456.02C181.368 456.724 181.235 457.506 180.912 458.365C180.605 459.184 180.187 459.813 179.657 460.252C179.128 460.692 178.53 460.98 177.863 461.117C177.197 461.254 176.487 461.262 175.736 461.139C174.977 461.037 174.218 460.843 173.459 460.558C172.5 460.198 171.681 459.8 171.002 459.363L170.834 459.812C170.571 460.511 170.574 461.173 170.841 461.797C171.1 462.442 171.769 462.966 172.848 463.371C173.547 463.633 174.245 463.838 174.941 463.985C175.618 464.125 176.182 464.2 176.634 464.21L176.031 467.368C175.511 467.355 174.81 467.251 173.926 467.056C173.034 466.881 172.139 466.625 171.24 466.288Z" fill="#05D58A"/>
<path d="M162.797 455.208C162.332 456.192 161.741 457.045 161.022 457.768C160.304 458.49 159.476 459.019 158.539 459.355C157.592 459.711 156.55 459.844 155.413 459.755C154.247 459.676 152.989 459.318 151.638 458.68C150.828 458.298 150.122 457.894 149.521 457.468C148.92 457.043 148.345 456.536 147.798 455.947L149.932 453.451C150.254 453.768 150.633 454.089 151.07 454.413C151.478 454.748 152.049 455.088 152.782 455.434C153.631 455.835 154.395 456.066 155.073 456.127C155.724 456.198 156.309 456.132 156.83 455.93C157.341 455.746 157.792 455.44 158.183 455.012C158.574 454.583 158.907 454.079 159.18 453.5C159.772 452.247 159.889 451.099 159.532 450.057C159.155 449.006 158.118 448.08 156.42 447.279C155.861 447.014 155.264 446.78 154.629 446.575C153.975 446.36 153.357 446.221 152.773 446.158L153.632 442.99C154.225 443.034 154.906 443.166 155.674 443.387C156.452 443.589 157.323 443.918 158.287 444.374C159.676 445.029 160.786 445.777 161.616 446.618C162.426 447.449 163 448.333 163.336 449.27C163.672 450.207 163.789 451.183 163.688 452.196C163.568 453.201 163.271 454.205 162.797 455.208Z" fill="#05D58A"/>
<path d="M141.368 450.066L144.335 451.775L142.706 454.604L139.739 452.895L137.854 456.167L134.124 454.757L136.328 450.93L130.865 447.784L132.494 444.956L137.957 448.102L140.992 442.833C141.268 442.353 141.446 441.938 141.524 441.589C141.602 441.24 141.605 440.934 141.535 440.672C141.464 440.41 141.325 440.182 141.116 439.988C140.908 439.794 140.656 439.612 140.36 439.442C140.046 439.261 139.754 439.105 139.485 438.974C139.197 438.833 138.922 438.712 138.66 438.61C138.369 438.517 138.068 438.442 137.756 438.385C137.425 438.318 137.06 438.267 136.661 438.234L137.882 435.023C138.66 435.127 139.451 435.336 140.254 435.651C141.039 435.955 141.773 436.304 142.457 436.698C143.252 437.156 143.917 437.625 144.453 438.106C144.988 438.587 145.362 439.134 145.575 439.749C145.787 440.364 145.812 441.068 145.651 441.861C145.479 442.673 145.078 443.624 144.45 444.715L141.368 450.066Z" fill="#05D58A"/>
<path d="M120.152 431.062L133.222 433.717L132.196 437.202L122.804 435.007L128.259 442.961L125.384 445.182L118.147 433.994L120.152 431.062Z" fill="#05D58A"/>
<path d="M91.1721 413.459L78.953 408.145L80.6971 404.97L89.4128 409.03L85.7362 400.146L88.9851 398.542L93.7379 411.003L91.1721 413.459Z" fill="#05D58A"/>
<path d="M81.214 387.809C82.9791 389.975 83.6318 392.195 83.1721 394.468C82.7124 396.741 81.2008 398.922 78.6371 401.011C77.3635 402.048 76.089 402.797 74.8137 403.258C73.5383 403.719 72.3123 403.92 71.1356 403.861C69.929 403.798 68.8084 403.486 67.7739 402.926C66.7094 402.362 65.7662 401.576 64.9443 400.567C64.4996 400.021 64.1518 399.493 63.9007 398.982C63.6196 398.468 63.4022 397.998 63.2485 397.573C63.0948 397.148 62.9965 396.774 62.9537 396.451C62.8974 396.112 62.8552 395.858 62.827 395.688L65.9051 394.501C65.9669 395.084 66.1374 395.715 66.4167 396.396C66.6659 397.073 67.0734 397.759 67.6393 398.454C68.0301 398.934 68.505 399.331 69.0643 399.646C69.5934 399.958 70.213 400.127 70.9229 400.154C71.6028 400.178 72.3762 400.03 73.2429 399.709C74.0962 399.371 75.0274 398.792 76.0363 397.97C77.7895 396.542 78.895 395.146 79.3527 393.782C79.7804 392.416 79.4351 391.046 78.3168 389.673C77.6701 388.88 77.0469 388.3 76.4473 387.936C75.8342 387.555 75.3086 387.281 74.8707 387.115L76.6507 384.386C77.2657 384.6 77.9921 384.985 78.83 385.541C79.6379 386.093 80.4325 386.849 81.214 387.809Z" fill="#05D58A"/>
<path d="M68.7505 377.802C68.3753 377.257 68.0139 376.846 67.6664 376.567C67.2893 376.283 66.9315 376.102 66.593 376.024C66.2369 375.959 65.9117 375.976 65.6174 376.075C65.2933 376.168 64.9996 376.306 64.7361 376.488C64.4023 376.718 64.1702 377.02 64.0398 377.395C63.9095 377.77 63.8506 378.173 63.8631 378.605C63.858 379.049 63.9036 379.509 63.9996 379.987C64.0781 380.477 64.1742 380.955 64.2879 381.421C64.4511 382.034 64.6001 382.682 64.7348 383.367C64.8696 384.051 64.9125 384.734 64.8638 385.415C64.8029 386.079 64.6146 386.727 64.2988 387.359C63.9655 388.003 63.4123 388.591 62.6393 389.124C61.111 390.177 59.5775 390.508 58.0389 390.118C56.4882 389.709 55.1137 388.636 53.9154 386.896C53.2255 385.895 52.7405 384.947 52.4605 384.052C52.1685 383.139 51.9874 382.331 51.9175 381.628L55.0745 380.852C55.1311 381.46 55.2592 382.098 55.4588 382.763C55.6462 383.411 55.982 384.087 56.4662 384.789C57.6523 386.511 58.8691 386.942 60.1163 386.083C60.4325 385.865 60.6531 385.583 60.778 385.238C60.8853 384.905 60.9449 384.54 60.9565 384.144C60.9385 383.741 60.8848 383.325 60.7954 382.894C60.6939 382.446 60.5896 382.013 60.4826 381.594C60.3248 380.952 60.1813 380.274 60.052 379.56C59.8931 378.84 59.8583 378.113 59.9476 377.378C60.0073 376.637 60.2329 375.912 60.6244 375.201C60.9984 374.503 61.6333 373.846 62.5293 373.228C64.0576 372.175 65.5884 371.859 67.1215 372.279C68.625 372.694 70.0727 373.912 71.4646 375.932C72.3966 377.285 73.0005 378.462 73.2762 379.464C73.5343 380.478 73.6796 381.271 73.712 381.845L70.4233 382.712C70.3776 382.044 70.2538 381.3 70.0519 380.481C69.8379 379.644 69.4041 378.751 68.7505 377.802Z" fill="#05D58A"/>
<path d="M58.6513 363.239C58.3212 362.665 57.9943 362.226 57.6704 361.92C57.3174 361.606 56.9754 361.397 56.6442 361.293C56.2946 361.198 55.9691 361.189 55.6677 361.264C55.3372 361.331 55.0333 361.445 54.756 361.605C54.4047 361.807 54.149 362.09 53.9888 362.453C53.8287 362.816 53.7374 363.213 53.715 363.644C53.6742 364.086 53.6824 364.549 53.7396 365.033C53.7783 365.528 53.8355 366.012 53.9112 366.486C54.0245 367.11 54.1206 367.768 54.1997 368.461C54.2788 369.154 54.2666 369.838 54.163 370.513C54.0488 371.17 53.8088 371.801 53.4431 372.405C53.0588 373.02 52.46 373.562 51.6466 374.031C50.0383 374.957 48.4831 375.163 46.981 374.65C45.4683 374.118 44.1849 372.937 43.1308 371.106C42.5239 370.053 42.1171 369.068 41.9102 368.154C41.6927 367.22 41.5775 366.4 41.5645 365.694L44.7738 365.175C44.7812 365.786 44.8574 366.432 45.0026 367.111C45.1372 367.772 45.4174 368.472 45.8433 369.212C46.8867 371.024 48.0647 371.551 49.3772 370.796C49.71 370.604 49.9525 370.341 50.1049 370.007C50.2387 369.684 50.3275 369.325 50.3711 368.931C50.3856 368.528 50.3657 368.109 50.3113 367.673C50.2462 367.218 50.1773 366.777 50.1044 366.352C49.999 365.698 49.9106 365.011 49.8394 364.289C49.739 363.559 49.763 362.831 49.9114 362.105C50.0306 361.372 50.314 360.667 50.7615 359.991C51.1906 359.325 51.8765 358.721 52.8193 358.178C54.4277 357.252 55.979 357.06 57.4732 357.602C58.9383 358.137 60.2831 359.468 61.5075 361.594C62.3273 363.017 62.8342 364.239 63.0282 365.26C63.2037 366.291 63.2844 367.094 63.2705 367.668L59.9226 368.267C59.9309 367.598 59.8675 366.846 59.7324 366.013C59.5866 365.162 59.2262 364.237 58.6513 363.239Z" fill="#05D58A"/>
<path d="M43.6228 343.236L53.59 352.097L50.9523 354.595L43.9343 347.979L44.6552 357.597L41.0536 358.073L40.4165 344.764L43.6228 343.236Z" fill="#05D58A"/>
<path d="M30.5274 322.822L22.1823 312.435L25.2034 310.435L31.0302 318.083L31.9082 308.508L35.5302 308.6L33.9413 321.841L30.5274 322.822Z" fill="#05D58A"/>
<path d="M32.7474 293.248C30.7668 294.555 28.8132 295.944 26.8868 297.414C24.9353 298.867 23.0004 300.405 21.0821 302.025L33.982 299.463L34.6742 302.947L15.2458 306.806L14.6285 303.699C15.4328 302.93 16.3208 302.145 17.2924 301.343C18.2432 300.545 19.1981 299.768 20.1572 299.012C21.1121 298.235 22.046 297.516 22.9589 296.857C23.8677 296.176 24.6654 295.593 25.3522 295.109L13.3939 297.484L12.7017 294.001L32.1301 290.141L32.7474 293.248Z" fill="#05D58A"/>
<path d="M23.5961 287.984C22.2829 288.141 21.1043 288.079 20.0605 287.796C19.0167 287.513 18.127 287.082 17.3916 286.505C16.635 285.929 16.0363 285.239 15.5957 284.432C15.1551 283.625 14.8814 282.777 14.7746 281.888C14.5102 279.685 14.9659 277.933 16.1419 276.631C17.2966 275.332 19.1237 274.533 21.6231 274.233C21.8773 274.202 22.1433 274.181 22.4212 274.169C22.6966 274.136 22.9202 274.12 23.0922 274.121L24.2555 283.811C25.2299 283.694 25.9547 283.199 26.4299 282.326C26.884 281.455 27.0348 280.384 26.8822 279.113C26.7881 278.329 26.6144 277.598 26.3611 276.919C26.1052 276.219 25.8632 275.636 25.6353 275.169L28.9065 274.229C29.2209 274.879 29.498 275.576 29.7378 276.321C29.9988 277.063 30.1865 277.91 30.3009 278.864C30.4535 280.134 30.4319 281.297 30.2362 282.352C30.0168 283.388 29.6327 284.305 29.0837 285.101C28.511 285.879 27.7709 286.516 26.8635 287.011C25.9561 287.507 24.867 287.831 23.5961 287.984ZM20.8379 278.162C20.4354 278.211 20.0605 278.309 19.7131 278.459C19.3446 278.61 19.026 278.82 18.7575 279.089C18.4889 279.358 18.2915 279.682 18.1653 280.063C18.0179 280.446 17.9759 280.902 18.0395 281.431C18.1005 281.94 18.2387 282.374 18.4539 282.735C18.6666 283.075 18.9364 283.354 19.2635 283.573C19.588 283.77 19.9498 283.92 20.3488 284.023C20.7453 284.104 21.1474 284.142 21.5549 284.136L20.8379 278.162Z" fill="#05D58A"/>
<path d="M17.6554 262.896L12.8364 260.008L12.682 256.011L20.0963 260.592C20.6948 260.057 21.3363 259.53 22.0208 259.013C22.6841 258.496 23.3588 258 24.045 257.526C24.7311 257.051 25.387 256.62 26.0125 256.233C26.6381 255.846 27.2017 255.514 27.7035 255.239L27.8615 259.332C26.7965 259.949 25.8488 260.562 25.0183 261.171C24.1878 261.779 23.4414 262.353 22.779 262.89C23.6564 263.497 24.51 264.041 25.3398 264.521C26.1696 265.001 27.0958 265.489 28.1183 265.983L28.2726 269.98C27.6634 269.683 27.0312 269.345 26.376 268.964C25.6987 268.563 25.021 268.152 24.3429 267.73C23.6426 267.287 22.9526 266.833 22.2728 266.369C21.5922 265.883 20.9444 265.416 20.3294 264.971L13.2426 270.528L13.0833 266.403L17.6554 262.896Z" fill="#05D58A"/>
<path d="M15.382 247.676L15.2367 251.097L11.9757 250.958L12.121 247.537L8.34838 247.377L7.87599 243.417L12.288 243.605L12.5555 237.306L15.8166 237.445L15.5491 243.743L21.6236 244.001C22.1778 244.025 22.6276 243.99 22.9732 243.898C23.3188 243.806 23.5915 243.668 23.7915 243.485C23.9915 243.301 24.1293 243.072 24.205 242.798C24.2807 242.523 24.3258 242.216 24.3403 241.875C24.3557 241.512 24.3591 241.181 24.3504 240.882C24.3427 240.561 24.3234 240.262 24.2926 239.983C24.2413 239.682 24.1687 239.38 24.0748 239.077C23.9818 238.753 23.8578 238.406 23.7026 238.036L27.1147 237.636C27.3823 238.374 27.5619 239.172 27.6536 240.03C27.7462 240.866 27.7757 241.679 27.7422 242.467C27.7033 243.384 27.5943 244.191 27.4152 244.888C27.2361 245.585 26.9231 246.169 26.476 246.642C26.0288 247.114 25.4162 247.461 24.638 247.684C23.8385 247.907 22.81 247.991 21.5525 247.938L15.382 247.676Z" fill="#05D58A"/>
<path d="M22.1914 220.303C23.1441 220.421 24.0282 220.66 24.8435 221.019C25.6615 221.357 26.3527 221.851 26.917 222.501C27.4839 223.13 27.9028 223.913 28.1737 224.85C28.4234 225.784 28.4695 226.886 28.312 228.156C28.1467 229.49 27.8396 230.58 27.3906 231.427C26.9417 232.275 26.4357 232.975 25.8726 233.529L22.9454 231.65C23.3498 231.163 23.7501 230.621 24.1464 230.026C24.5453 229.409 24.7868 228.761 24.8707 228.084C24.9967 227.068 24.8331 226.22 24.3799 225.54C23.9082 224.837 22.9419 224.395 21.4811 224.214L11.8587 223.021L11.0439 229.595L7.80466 229.193L9.10752 218.682L22.1914 220.303Z" fill="#05D58A"/>
<path d="M27.0815 209.876C27.2758 208.936 27.362 208.202 27.3403 207.675C27.2976 207.143 27.0674 206.834 26.6495 206.748C26.378 206.692 26.1309 206.728 25.9083 206.856C25.6901 206.964 25.488 207.151 25.3023 207.417C25.0999 207.659 24.8972 207.955 24.6941 208.305C24.4954 208.634 24.2924 208.984 24.085 209.355C23.8013 209.885 23.4946 210.42 23.1648 210.962C22.8141 211.5 22.422 211.974 21.9884 212.386C21.5549 212.797 21.055 213.108 20.4888 213.317C19.9018 213.523 19.2218 213.546 18.4487 213.386C17.822 213.257 17.2607 213.021 16.765 212.679C16.2528 212.311 15.8395 211.834 15.5252 211.246C15.1944 210.633 14.9961 209.906 14.9304 209.065C14.8437 208.219 14.9147 207.243 15.1435 206.135C15.3421 205.174 15.5987 204.301 15.9133 203.517C16.2322 202.711 16.59 202.034 16.9868 201.484L20.123 202.753C19.9451 203.086 19.6636 203.606 19.2784 204.31C18.8723 205.01 18.5721 205.831 18.3778 206.771C18.1749 207.753 18.1622 208.447 18.3395 208.854C18.5002 209.236 18.7164 209.455 18.988 209.511C19.2178 209.559 19.4418 209.529 19.6601 209.421C19.8618 209.289 20.0616 209.112 20.2597 208.892C20.462 208.65 20.6709 208.377 20.8862 208.073C21.0849 207.744 21.288 207.394 21.4953 207.023C21.7999 206.498 22.1297 205.956 22.4847 205.397C22.8397 204.839 23.2444 204.356 23.6989 203.949C24.1367 203.517 24.6596 203.2 25.2676 202.999C25.8546 202.793 26.5347 202.771 27.3077 202.93C27.9135 203.056 28.4643 203.289 28.96 203.631C29.4558 203.973 29.846 204.457 30.1307 205.082C30.4197 205.686 30.5907 206.441 30.6435 207.345C30.6963 208.249 30.5932 209.327 30.3342 210.581C30.0709 211.855 29.7002 212.912 29.2221 213.75C28.744 214.587 28.3339 215.254 27.9918 215.75L24.887 214.488C25.3306 213.817 25.7619 213.1 26.181 212.337C26.6044 211.553 26.9045 210.733 27.0815 209.876Z" fill="#05D58A"/>
<path d="M29.2674 184.739L30.8061 197.986L27.1748 198.095L26.3421 188.486L20.4774 196.143L17.4728 194.101L25.8572 183.745L29.2674 184.739Z" fill="#05D58A"/>
<path d="M33.4204 159.811L34.1563 146.507L37.7403 147.039L36.962 156.622L44.0149 150.087L46.648 152.576L36.6152 161.363L33.4204 159.811Z" fill="#05D58A"/>
<path d="M39.0282 127.123L41.8445 128.773L39.2081 133.274L53.4832 141.636L51.4776 145.06L37.2025 136.698L34.5661 141.198L31.7497 139.548L39.0282 127.123Z" fill="#05D58A"/>
<path d="M59.0784 126.467C59.323 126.118 59.5615 125.777 59.7939 125.445C60.0089 125.101 60.1845 124.794 60.3208 124.525L57.4893 122.543C57.3075 122.728 57.104 122.964 56.8785 123.248C56.6356 123.521 56.4286 123.78 56.2573 124.024C56.0249 124.357 55.8248 124.698 55.6571 125.05C55.4719 125.389 55.3461 125.717 55.2797 126.035C55.2255 126.336 55.2457 126.623 55.3401 126.898C55.4345 127.172 55.639 127.419 55.9536 127.64C56.5129 128.031 57.0617 128.103 57.6 127.854C58.1207 127.594 58.6135 127.132 59.0784 126.467ZM48.5469 119.527C49.2563 118.513 49.9658 117.76 50.6753 117.267C51.3796 116.744 52.0909 116.435 52.8092 116.338C53.51 116.23 54.2361 116.309 54.9877 116.574C55.7217 116.827 56.4733 117.223 57.2423 117.761L64.5832 122.899C64.3578 123.444 63.9909 124.229 63.4824 125.253C62.974 126.277 62.3161 127.366 61.5088 128.52C60.9583 129.306 60.3869 129.974 59.7945 130.523C59.2143 131.054 58.6079 131.437 57.9752 131.671C57.3251 131.893 56.661 131.949 55.9829 131.839C55.2873 131.717 54.5637 131.393 53.8121 130.867C53.0955 130.365 52.5904 129.804 52.2967 129.181C52.003 128.559 51.8728 127.908 51.9059 127.228C51.939 126.549 52.1085 125.86 52.4142 125.163C52.7025 124.453 53.0791 123.766 53.5439 123.102C54.131 122.263 54.7208 121.569 55.3132 121.02L54.92 120.745C54.3082 120.317 53.6668 120.154 52.9957 120.258C52.3071 120.349 51.6326 120.866 50.972 121.81C50.5439 122.422 50.1717 123.046 49.8555 123.684C49.5514 124.305 49.3383 124.833 49.216 125.268L46.3085 123.897C46.45 123.397 46.7252 122.744 47.1341 121.936C47.5255 121.116 47.9964 120.313 48.5469 119.527Z" fill="#05D58A"/>
<path d="M57.1966 100.506C57.7885 100.996 58.1008 101.572 58.1334 102.236C58.166 102.9 57.9648 103.494 57.5298 104.021C57.0948 104.547 56.5483 104.856 55.8904 104.949C55.2461 105.025 54.628 104.818 54.0361 104.329C53.4277 103.826 53.1005 103.251 53.0543 102.604C53.0217 101.94 53.2228 101.345 53.6579 100.819C54.0929 100.293 54.6393 99.9837 55.2972 99.891C55.9552 99.7983 56.5883 100.003 57.1966 100.506ZM75.3555 107.922C75.1349 108.791 74.8428 109.546 74.4793 110.187C74.1457 110.825 73.7887 111.374 73.4081 111.834C72.7555 112.623 72.0899 113.194 71.4111 113.546C70.7459 113.882 70.0637 114.038 69.3643 114.013C68.6621 113.958 67.9443 113.738 67.2107 113.353C66.4772 112.968 65.7076 112.443 64.902 111.777L60.6355 108.249L57.9847 111.455L55.4691 109.375L60.628 103.136L67.8047 109.07C68.4952 109.641 69.1151 109.945 69.6642 109.984C70.2106 109.993 70.7284 109.702 71.2178 109.11C71.4489 108.83 71.6947 108.466 71.9552 108.017C72.1992 107.554 72.4101 106.981 72.5877 106.298L75.3555 107.922Z" fill="#05D58A"/>
<path d="M86.9691 94.7027C86.9551 94.7783 86.9046 94.9375 86.8176 95.1801C86.7455 95.4075 86.629 95.6958 86.4681 96.0451C86.2919 96.3796 86.0486 96.7678 85.7382 97.2099C85.4427 97.6366 85.0645 98.0871 84.6038 98.5615C83.3403 99.8622 82.0362 100.439 80.6913 100.293C79.3312 100.132 77.9089 99.3302 76.4246 97.8883L67.266 88.9921L64.3675 91.9762L62.0262 89.7019L67.6671 83.8946L79.3736 95.2657C80.1081 95.9792 80.7467 96.3169 81.2892 96.2788C81.8318 96.2408 82.3186 95.9998 82.7497 95.5561C83.2997 94.9899 83.6839 94.4412 83.9025 93.91C84.1211 93.3787 84.2669 93.0296 84.3399 92.8626L86.9691 94.7027Z" fill="#05D58A"/>
<path d="M96.5429 85.9938C95.9304 85.6513 95.3611 85.3419 94.835 85.0656C94.3249 84.7752 93.8289 84.5008 93.347 84.2425C92.867 83.954 92.372 83.6646 91.8619 83.3742C91.3538 83.0537 90.8025 82.7001 90.208 82.3135C90.4978 82.9674 90.7613 83.5591 90.9988 84.0886C91.2221 84.6021 91.4374 85.1227 91.6448 85.6502C91.8681 86.1637 92.0905 86.6923 92.3119 87.2359C92.5332 87.7795 92.7647 88.3994 93.0064 89.0955L90.769 91.0578C89.9576 90.5209 89.0909 89.9047 88.1689 89.2094C87.2489 88.484 86.2948 87.7034 85.3064 86.8677C84.304 86.0159 83.2895 85.118 82.2629 84.1739C81.2363 83.2299 80.1966 82.2547 79.1439 81.2485L81.67 79.033C82.9579 80.3721 84.2178 81.6791 85.4494 82.9541C86.6972 84.215 88.0362 85.4667 89.4665 86.7094C89.1405 85.917 88.8246 85.2009 88.5188 84.5611C88.215 83.8911 87.9153 83.2744 87.6196 82.7108C87.3259 82.1171 87.0373 81.5615 86.7537 81.0441C86.4721 80.4965 86.1835 79.9409 85.8878 79.3773L88.029 77.4995C88.5332 77.8802 89.0303 78.2529 89.5204 78.6176C90.0125 78.9522 90.5257 79.3108 91.0599 79.6935C91.5962 80.0461 92.1605 80.4308 92.753 80.8475C93.3475 81.2342 94.0083 81.6478 94.7353 82.0885C94.1844 81.2663 93.6457 80.4903 93.1191 79.7604C92.5924 79.0305 92.0568 78.3227 91.5121 77.6369C90.9694 76.9211 90.4178 76.2274 89.8571 75.5557C89.2983 74.8539 88.7185 74.1281 88.1176 73.3782L90.6437 71.1627C92.3944 73.5148 93.9604 75.8018 95.3417 78.0239C96.739 80.2318 97.8852 82.2344 98.7804 84.0315L96.5429 85.9938Z" fill="#05D58A"/>
<path d="M96.1718 60.6259C96.6326 61.2403 96.8011 61.8739 96.6774 62.5267C96.5537 63.1795 96.2187 63.7107 95.6726 64.1203C95.1264 64.5299 94.5227 64.7027 93.8614 64.6387C93.2171 64.5619 92.6646 64.2163 92.2038 63.6019C91.7302 62.9704 91.5467 62.3347 91.6534 61.6947C91.7771 61.0419 92.1121 60.5107 92.6582 60.1011C93.2043 59.6915 93.8081 59.5187 94.4694 59.5827C95.1307 59.6467 95.6982 59.9944 96.1718 60.6259ZM112.089 72.0884C111.67 72.882 111.21 73.5476 110.706 74.0852C110.233 74.6271 109.757 75.0772 109.279 75.4356C108.46 76.05 107.679 76.4489 106.937 76.6324C106.211 76.803 105.511 76.7945 104.837 76.6068C104.167 76.3892 103.521 76.0073 102.898 75.4611C102.275 74.915 101.65 74.2238 101.023 73.3875L97.7014 68.9587L94.3733 71.4547L92.4149 68.8435L98.8918 63.9859L104.479 71.4356C105.017 72.1524 105.548 72.594 106.073 72.7604C106.602 72.8969 107.173 72.7348 107.788 72.274C108.078 72.0564 108.402 71.7598 108.761 71.3844C109.106 70.9918 109.445 70.4841 109.778 69.8612L112.089 72.0884Z" fill="#05D58A"/>
<path d="M108.171 57.0098C108.664 56.4717 109.298 55.8572 110.073 55.1663C110.866 54.4641 111.777 53.7885 112.805 53.1395C113.815 52.5018 114.745 52.1167 115.595 51.9841C116.433 51.8334 117.207 51.9001 117.916 52.1842C118.632 52.4389 119.298 52.8758 119.916 53.4949C120.523 54.096 121.099 54.8296 121.646 55.6955L126.172 62.8668L122.843 64.9675L118.59 58.2292C117.839 57.0385 117.163 56.267 116.562 55.9146C115.961 55.5622 115.246 55.6479 114.416 56.1716C114.163 56.331 113.916 56.4995 113.675 56.6769C113.452 56.843 113.217 57.0294 112.969 57.2363L119.271 67.2219L115.942 69.3226L108.171 57.0098Z" fill="#05D58A"/>
<path d="M129.739 51.2897C130.361 52.4806 131.088 53.3405 131.918 53.8692C132.768 54.388 133.684 54.3904 134.667 53.8762C134.95 53.7279 135.21 53.58 135.446 53.4326C135.682 53.2852 135.922 53.1233 136.167 52.9471L132.37 45.6881C132.026 45.6753 131.66 45.7106 131.27 45.7941C130.87 45.8586 130.481 45.9898 130.103 46.1875C129.272 46.6226 128.84 47.2698 128.808 48.1292C128.776 48.9886 129.086 50.0421 129.739 51.2897ZM140.915 53.533C140.381 54.0771 139.686 54.6576 138.829 55.2744C137.972 55.8913 137.099 56.432 136.21 56.8967C134.131 57.9844 132.231 58.1956 130.511 57.5305C128.81 56.8555 127.4 55.4499 126.283 53.3138C125.146 51.1399 124.695 49.1967 124.931 47.4844C125.176 45.7432 126.178 44.4129 127.936 43.4933C128.408 43.2461 128.901 43.0606 129.414 42.9367C129.917 42.7939 130.388 42.7281 130.828 42.7391L127.654 36.671L130.83 34.2513L140.915 53.533Z" fill="#05D58A"/>
<path d="M155.592 39.7222L146.294 49.2835L143.916 46.5368L150.839 39.8215L141.199 40.1118L140.884 36.4925L154.208 36.4507L155.592 39.7222Z" fill="#05D58A"/>
<path d="M176.745 27.4418L187.502 19.5784L189.362 22.6875L181.456 28.1599L190.981 29.473L190.725 33.0871L177.57 30.8968L176.745 27.4418Z" fill="#05D58A"/>
<path d="M201.299 28.844C201.953 28.7426 202.48 28.5959 202.882 28.4039C203.302 28.1876 203.621 27.9439 203.837 27.6728C204.051 27.3805 204.177 27.0803 204.216 26.7721C204.272 26.4395 204.276 26.1151 204.227 25.7989C204.164 25.3983 203.993 25.058 203.712 24.7778C203.431 24.4975 203.093 24.2693 202.699 24.0931C202.301 23.8957 201.866 23.7366 201.394 23.6156C200.919 23.4735 200.447 23.3525 199.978 23.2526C199.355 23.1334 198.706 22.9859 198.031 22.81C197.356 22.6341 196.722 22.3763 196.13 22.0365C195.558 21.6934 195.056 21.2424 194.624 20.6834C194.189 20.1034 193.899 19.3496 193.755 18.422C193.47 16.588 193.838 15.0628 194.858 13.8466C195.899 12.6271 197.463 11.8553 199.55 11.5313C200.752 11.3448 201.817 11.3198 202.745 11.4564C203.694 11.5897 204.5 11.7776 205.164 12.02L204.492 15.2007C203.919 14.9874 203.29 14.8261 202.603 14.7167C201.938 14.6041 201.184 14.6132 200.341 14.7441C198.275 15.0649 197.358 15.9736 197.59 17.4703C197.649 17.8498 197.807 18.1707 198.064 18.4331C198.317 18.6745 198.62 18.8865 198.972 19.0693C199.342 19.2278 199.74 19.3602 200.167 19.4667C200.615 19.5699 201.051 19.6642 201.474 19.7495C202.121 19.8865 202.795 20.0518 203.494 20.2455C204.211 20.4148 204.881 20.6994 205.505 21.0991C206.146 21.4746 206.701 21.9928 207.171 22.6539C207.637 23.294 207.954 24.1515 208.121 25.2267C208.406 27.0607 208.026 28.5769 206.981 29.7754C205.955 30.9494 204.229 31.7247 201.805 32.101C200.182 32.353 198.859 32.3857 197.837 32.1989C196.811 31.9911 196.033 31.7773 195.503 31.5574L196.15 28.2185C196.772 28.4675 197.495 28.679 198.321 28.853C199.168 29.0238 200.161 29.0208 201.299 28.844Z" fill="#05D58A"/>
<path d="M224.742 20.9428C224.834 22.1339 224.747 23.2319 224.483 24.2366C224.216 25.22 223.802 26.0866 223.239 26.8361C222.677 27.5857 221.974 28.1857 221.132 28.6359C220.311 29.0846 219.368 29.35 218.305 29.4322C217.241 29.5144 216.259 29.3978 215.357 29.0823C214.477 28.7652 213.69 28.2804 212.998 27.6278C212.327 26.9736 211.784 26.181 211.37 25.2502C210.954 24.2981 210.7 23.2265 210.608 22.0354C210.517 20.8655 210.605 19.7889 210.872 18.8054C211.158 17.7991 211.583 16.9317 212.147 16.2034C212.731 15.4522 213.445 14.862 214.289 14.433C215.131 13.9828 216.063 13.7182 217.084 13.6393C218.126 13.5587 219.087 13.677 219.968 13.9941C220.868 14.2882 221.653 14.7624 222.324 15.4167C223.015 16.048 223.569 16.8397 223.984 17.7918C224.399 18.7226 224.651 19.773 224.742 20.9428ZM214.598 21.759C214.702 23.099 215.02 24.1657 215.552 24.959C216.105 25.7507 216.913 26.1055 217.977 26.0233C218.998 25.9444 219.732 25.4704 220.178 24.6014C220.646 23.7308 220.828 22.6255 220.724 21.2855C220.62 19.9455 220.293 18.8902 219.741 18.1198C219.209 17.3265 218.411 16.9709 217.348 17.0531C216.327 17.132 215.583 17.6068 215.115 18.4774C214.667 19.3251 214.495 20.419 214.598 21.759Z" fill="#05D58A"/>
<path d="M244.324 26.9616C244.26 27.0038 244.11 27.0773 243.874 27.1821C243.66 27.2871 243.371 27.4022 243.008 27.5274C242.644 27.6313 242.195 27.7238 241.661 27.805C241.149 27.8864 240.562 27.9246 239.901 27.9195C238.087 27.9055 236.769 27.3619 235.945 26.2889C235.121 25.1945 234.718 23.6126 234.734 21.5434L234.832 8.77572L230.672 8.74361L230.697 5.4797L238.793 5.5422L238.667 21.8617C238.659 22.8857 238.857 23.5806 239.259 23.9464C239.662 24.3122 240.172 24.4974 240.791 24.5022C241.58 24.5083 242.242 24.4068 242.777 24.1976C243.312 23.9883 243.665 23.8524 243.837 23.7897L244.324 26.9616Z" fill="#05D58A"/>
<path d="M256.693 8.38138C256.628 9.14662 256.332 9.73164 255.805 10.1364C255.278 10.5413 254.675 10.7147 253.994 10.6569C253.314 10.599 252.749 10.3261 252.298 9.83814C251.868 9.35197 251.686 8.72627 251.751 7.96103C251.818 7.17454 252.104 6.57798 252.61 6.17137C253.136 5.76656 253.74 5.59309 254.42 5.65094C255.1 5.7088 255.666 5.98171 256.117 6.46968C256.568 6.95765 256.76 7.59489 256.693 8.38138ZM260.941 27.5304C260.101 27.8443 259.314 28.0343 258.581 28.1003C257.867 28.1895 257.212 28.2087 256.617 28.1581C255.596 28.0713 254.748 27.8493 254.072 27.492C253.417 27.1366 252.901 26.6645 252.522 26.0756C252.167 25.4673 251.939 24.7521 251.838 23.9299C251.736 23.1077 251.73 22.1758 251.819 21.1342L252.288 15.6181L248.143 15.2656L248.419 12.0133L256.486 12.6994L255.697 21.9779C255.621 22.8707 255.724 23.5538 256.005 24.0274C256.309 24.4814 256.843 24.741 257.608 24.8061C257.97 24.8368 258.409 24.8314 258.926 24.7897C259.446 24.7268 260.037 24.5737 260.7 24.3304L260.941 27.5304Z" fill="#05D58A"/>
<path d="M269.841 20.9972C269.62 22.3229 269.681 23.4469 270.024 24.3695C270.389 25.2955 271.118 25.8499 272.212 26.0327C272.528 26.0854 272.824 26.1241 273.101 26.1487C273.378 26.1734 273.668 26.1893 273.969 26.1964L275.319 18.1163C275.052 17.8988 274.739 17.7058 274.377 17.5373C274.02 17.3478 273.631 17.2179 273.21 17.1476C272.284 16.9929 271.549 17.2487 271.005 17.9148C270.461 18.581 270.073 19.6085 269.841 20.9972ZM277.403 29.5277C276.649 29.6397 275.744 29.6832 274.689 29.6583C273.633 29.6333 272.611 29.5382 271.622 29.373C269.307 28.9864 267.664 28.0091 266.693 26.441C265.744 24.8764 265.467 22.9053 265.864 20.5276C266.269 18.1078 267.081 16.2861 268.302 15.0625C269.548 13.8214 271.149 13.3643 273.106 13.6912C273.632 13.7791 274.137 13.9283 274.621 14.1389C275.108 14.3285 275.524 14.5601 275.867 14.8338L276.996 8.07939L280.988 8.06507L277.403 29.5277Z" fill="#05D58A"/>
<path d="M296.167 26.834C295.934 27.7652 295.589 28.6135 295.133 29.379C294.698 30.1496 294.124 30.7753 293.409 31.256C292.716 31.7419 291.887 32.0621 290.925 32.2167C289.968 32.3506 288.868 32.2619 287.627 31.9506C286.323 31.6238 285.278 31.1859 284.492 30.6369C283.706 30.0879 283.073 29.5002 282.592 28.8738L284.813 26.1977C285.248 26.6585 285.736 27.1219 286.279 27.5879C286.843 28.0592 287.456 28.3778 288.118 28.5438C289.111 28.7928 289.973 28.7339 290.702 28.367C291.458 27.9847 292.015 27.0796 292.373 25.6517L294.731 16.2468L288.306 14.6359L289.1 11.4699L299.374 14.0458L296.167 26.834Z" fill="#05D58A"/>
<path d="M306.976 33.2492C307.885 33.5593 308.602 33.7365 309.128 33.7807C309.661 33.8048 309.996 33.6149 310.134 33.2111C310.224 32.9486 310.219 32.699 310.119 32.4621C310.04 32.2322 309.879 32.0084 309.638 31.7908C309.424 31.5599 309.156 31.3218 308.834 31.0767C308.532 30.8384 308.21 30.5932 307.867 30.3412C307.377 29.9936 306.884 29.6224 306.388 29.2276C305.898 28.8125 305.476 28.3643 305.122 27.8827C304.768 27.4012 304.522 26.8665 304.385 26.2786C304.254 25.6705 304.317 24.9929 304.571 24.2459C304.778 23.6402 305.082 23.1128 305.483 22.6636C305.912 22.2012 306.437 21.8508 307.059 21.6123C307.709 21.3606 308.455 21.2546 309.298 21.2944C310.148 21.3139 311.108 21.5063 312.178 21.8715C313.107 22.1885 313.941 22.552 314.68 22.9621C315.439 23.379 316.067 23.8186 316.563 24.2809L314.913 27.2342C314.604 27.0161 314.124 26.672 313.473 26.2018C312.829 25.7115 312.052 25.3113 311.144 25.0012C310.195 24.6773 309.507 24.578 309.082 24.7031C308.683 24.815 308.439 25.0021 308.349 25.2646C308.273 25.4867 308.275 25.7127 308.354 25.9426C308.461 26.1593 308.611 26.3796 308.805 26.6036C309.019 26.8345 309.264 27.0758 309.538 27.3274C309.84 27.5656 310.162 27.8108 310.505 28.0629C310.988 28.4306 311.484 28.8255 311.994 29.2474C312.504 29.6693 312.932 30.1311 313.279 30.6328C313.654 31.1212 313.903 31.6796 314.026 32.3079C314.157 32.916 314.095 33.5935 313.84 34.3406C313.64 34.9261 313.339 35.4434 312.938 35.8926C312.537 36.3417 312.008 36.6685 311.352 36.8729C310.717 37.0843 309.947 37.1597 309.044 37.0993C308.14 37.0389 307.083 36.802 305.871 36.3885C304.64 35.9682 303.638 35.4686 302.866 34.8896C302.095 34.3107 301.484 33.8206 301.035 33.4193L302.675 30.4964C303.285 31.0202 303.943 31.5376 304.647 32.0486C305.372 32.5665 306.149 32.9667 306.976 33.2492Z" fill="#05D58A"/>
<path d="M331.161 38.3516L317.825 38.2397L318.167 34.6229L327.805 34.9852L320.932 28.2184L323.33 25.4895L332.569 35.0906L331.161 38.3516Z" fill="#05D58A"/>
<path d="M355.161 45.3928L368.277 47.7387L367.314 51.2317L357.896 49.2954L363.526 57.0897L360.736 59.401L353.232 48.3755L355.161 45.3928Z" fill="#05D58A"/>
<path d="M378.888 65.3512C378.304 66.1128 377.65 66.7542 376.928 67.2754C376.222 67.8096 375.446 68.1553 374.599 68.3124C373.77 68.4826 372.882 68.4473 371.938 68.2065C371.006 67.9488 370.033 67.4304 369.017 66.6513C367.951 65.8332 367.166 65.016 366.663 64.1998C366.16 63.3835 365.812 62.5925 365.62 61.8266L368.722 60.254C368.938 60.8495 369.202 61.469 369.515 62.1124C369.845 62.7689 370.28 63.3049 370.822 63.7204C371.634 64.3438 372.448 64.6321 373.264 64.5856C374.109 64.5351 374.98 63.9259 375.876 62.758L381.778 55.0653L376.523 51.0332L378.51 48.4436L386.913 54.8911L378.888 65.3512Z" fill="#05D58A"/>
<path d="M384.915 74.6739C385.233 74.9587 385.542 75.2364 385.844 75.507C386.16 75.7617 386.444 75.9728 386.695 76.1404L389.002 73.5672C388.839 73.3645 388.631 73.1342 388.375 72.8762C388.133 72.6024 387.901 72.3657 387.679 72.1664C387.377 71.8958 387.062 71.6562 386.733 71.4475C386.419 71.2229 386.108 71.0586 385.8 70.9546C385.508 70.8647 385.22 70.8502 384.936 70.911C384.653 70.9718 384.383 71.1452 384.126 71.4311C383.671 71.9394 383.534 72.4756 383.715 73.0398C383.912 73.5881 384.311 74.1328 384.915 74.6739ZM393.069 65.0513C393.99 65.8772 394.653 66.672 395.057 67.4355C395.492 68.1974 395.714 68.9406 395.723 69.6653C395.747 70.3741 395.581 71.0856 395.228 71.7998C394.888 72.4982 394.405 73.1968 393.778 73.8957L387.797 80.5672C387.283 80.278 386.548 79.8196 385.592 79.1919C384.636 78.5642 383.634 77.7804 382.586 76.8405C381.871 76.1997 381.277 75.5523 380.803 74.8983C380.345 74.2586 380.038 73.6106 379.881 72.9544C379.739 72.2824 379.763 71.6163 379.953 70.9563C380.158 70.2804 380.567 69.6009 381.179 68.9179C381.763 68.2666 382.381 67.8326 383.034 67.6156C383.687 67.3987 384.349 67.3475 385.02 67.462C385.691 67.5764 386.354 67.8273 387.01 68.2145C387.68 68.5859 388.317 69.0421 388.92 69.5833C389.683 70.2668 390.301 70.9356 390.775 71.5896L391.095 71.2322C391.593 70.6762 391.832 70.0589 391.81 69.3803C391.802 68.6857 391.369 67.954 390.512 67.185C389.956 66.6866 389.38 66.2421 388.785 65.8516C388.205 65.4753 387.707 65.2003 387.289 65.0267L388.999 62.3047C389.478 62.5052 390.094 62.8568 390.847 63.3596C391.614 63.8466 392.354 64.4104 393.069 65.0513Z" fill="#05D58A"/>
<path d="M394.925 87.1644C395.64 85.1605 396.572 82.9208 397.722 80.4451C398.901 77.9702 400.28 75.3646 401.859 72.6282L404.703 75.6204C404.247 76.318 403.775 77.0756 403.287 77.8931C402.813 78.7261 402.339 79.5742 401.864 80.4373C401.405 81.2857 400.961 82.1195 400.533 82.9385C400.119 83.773 399.745 84.5407 399.41 85.2414C400.127 84.9427 400.92 84.6158 401.789 84.2607C402.659 83.9056 403.536 83.528 404.421 83.128C405.337 82.7288 406.23 82.3214 407.101 81.906C407.986 81.506 408.789 81.0963 409.509 80.677L412.264 83.5765C409.451 85.0139 406.742 86.2201 404.137 87.195C401.547 88.1552 399.233 88.9414 397.196 89.5535L394.925 87.1644Z" fill="#05D58A"/>
<path d="M410.536 99.4517C410.804 99.7835 411.065 100.107 411.32 100.422C411.592 100.724 411.838 100.978 412.059 101.183L414.746 99.01C414.618 98.7841 414.449 98.5234 414.237 98.228C414.043 97.9192 413.851 97.6486 413.663 97.4164C413.409 97.1012 413.136 96.8144 412.844 96.5561C412.57 96.2843 412.289 96.0725 412.001 95.9207C411.728 95.7856 411.446 95.7254 411.156 95.7402C410.866 95.7551 410.572 95.8832 410.273 96.1247C409.742 96.5539 409.522 97.0615 409.612 97.6474C409.718 98.2199 410.026 98.8213 410.536 99.4517ZM420.118 91.2507C420.896 92.2128 421.424 93.103 421.701 93.9211C422.009 94.7425 422.11 95.5116 422.003 96.2285C421.914 96.932 421.637 97.6081 421.174 98.2568C420.728 98.8922 420.14 99.505 419.41 100.095L412.442 105.729C411.981 105.361 411.328 104.792 410.484 104.02C409.641 103.248 408.776 102.315 407.891 101.22C407.287 100.473 406.804 99.7394 406.44 99.0183C406.09 98.3138 405.89 97.6251 405.84 96.9524C405.806 96.2662 405.936 95.6125 406.229 94.9913C406.539 94.3566 407.051 93.7509 407.764 93.1741C408.444 92.6242 409.124 92.2941 409.803 92.184C410.482 92.0738 411.144 92.1287 411.788 92.3485C412.432 92.5684 413.047 92.9217 413.633 93.4084C414.235 93.8817 414.791 94.4336 415.3 95.064C415.944 95.8602 416.448 96.6189 416.812 97.34L417.185 97.0382C417.765 96.5687 418.099 95.9973 418.185 95.3238C418.288 94.6369 417.978 93.8456 417.253 92.9498C416.784 92.3692 416.286 91.8387 415.761 91.3583C415.249 90.8945 414.8 90.5437 414.416 90.3058L416.537 87.8909C416.979 88.1651 417.531 88.6104 418.194 89.2266C418.873 89.8295 419.515 90.5042 420.118 91.2507Z" fill="#05D58A"/>
<path d="M421.501 112.795C421.875 113.34 422.234 113.753 422.581 114.033C422.957 114.319 423.314 114.501 423.652 114.58C424.008 114.647 424.333 114.631 424.628 114.533C424.953 114.441 425.247 114.304 425.511 114.124C425.846 113.895 426.079 113.593 426.211 113.219C426.342 112.845 426.403 112.442 426.392 112.01C426.398 111.566 426.355 111.105 426.26 110.627C426.183 110.136 426.089 109.658 425.977 109.192C425.816 108.579 425.67 107.929 425.537 107.245C425.405 106.56 425.365 105.877 425.416 105.196C425.479 104.532 425.67 103.885 425.988 103.254C426.324 102.611 426.879 102.025 427.654 101.495C429.186 100.448 430.721 100.122 432.258 100.518C433.807 100.932 435.178 102.011 436.37 103.754C437.056 104.758 437.537 105.708 437.814 106.605C438.103 107.518 438.281 108.327 438.348 109.03L435.188 109.795C435.134 109.186 435.008 108.548 434.811 107.882C434.626 107.233 434.293 106.557 433.811 105.852C432.631 104.126 431.416 103.691 430.166 104.546C429.849 104.762 429.627 105.043 429.501 105.388C429.392 105.72 429.332 106.085 429.318 106.482C429.335 106.884 429.387 107.3 429.475 107.731C429.575 108.18 429.678 108.613 429.783 109.032C429.939 109.676 430.08 110.354 430.206 111.069C430.363 111.789 430.395 112.516 430.303 113.251C430.24 113.992 430.012 114.716 429.618 115.425C429.241 116.122 428.604 116.777 427.706 117.391C426.174 118.438 424.642 118.749 423.11 118.323C421.608 117.903 420.165 116.68 418.78 114.655C417.853 113.299 417.254 112.119 416.982 111.116C416.727 110.102 416.585 109.307 416.555 108.734L419.847 107.879C419.89 108.547 420.011 109.291 420.21 110.111C420.421 110.949 420.851 111.843 421.501 112.795Z" fill="#05D58A"/>
<path d="M432.724 120.045C433.669 119.506 434.643 119.146 435.646 118.966C436.649 118.787 437.631 118.828 438.591 119.09C439.57 119.342 440.5 119.83 441.381 120.556C442.291 121.289 443.116 122.304 443.857 123.601C444.301 124.379 444.647 125.115 444.896 125.808C445.144 126.501 445.324 127.246 445.435 128.043L442.256 128.863C442.174 128.419 442.047 127.939 441.875 127.422C441.732 126.914 441.46 126.308 441.058 125.604C440.592 124.789 440.099 124.162 439.578 123.723C439.086 123.291 438.569 123.009 438.026 122.877C437.502 122.734 436.957 122.726 436.391 122.852C435.825 122.979 435.264 123.201 434.708 123.519C433.504 124.206 432.749 125.079 432.445 126.138C432.151 127.215 432.469 128.568 433.4 130.198C433.707 130.736 434.061 131.27 434.463 131.802C434.876 132.353 435.303 132.821 435.745 133.208L433.224 135.311C432.764 134.935 432.282 134.436 431.78 133.814C431.258 133.202 430.733 132.434 430.205 131.507C429.443 130.173 428.963 128.924 428.765 127.76C428.577 126.614 428.615 125.561 428.877 124.601C429.139 123.64 429.602 122.774 430.267 122.001C430.942 121.247 431.761 120.595 432.724 120.045Z" fill="#05D58A"/>
<path d="M450.321 144.624C450.269 144.365 450.195 144.058 450.098 143.702C450.01 143.366 449.908 143.025 449.792 142.679C449.695 142.324 449.583 141.987 449.457 141.67C449.33 141.352 449.217 141.087 449.117 140.875C448.88 140.373 448.619 139.895 448.333 139.44C448.067 138.976 447.748 138.525 447.376 138.087L437.277 142.855L435.583 139.267L448.286 133.269C449.08 134.051 449.815 134.883 450.492 135.767C451.177 136.67 451.835 137.787 452.463 139.118C452.554 139.311 452.672 139.585 452.817 139.942C452.97 140.317 453.114 140.721 453.247 141.154C453.4 141.577 453.533 142.01 453.648 142.451C453.79 142.903 453.881 143.32 453.92 143.703L450.321 144.624Z" fill="#05D58A"/>
<path d="M463.976 154.371C463.257 154.641 462.602 154.625 462.01 154.323C461.418 154.021 461.002 153.55 460.762 152.911C460.523 152.272 460.526 151.644 460.773 151.027C461.028 150.43 461.515 149.997 462.234 149.727C462.973 149.45 463.634 149.452 464.219 149.734C464.811 150.036 465.226 150.507 465.466 151.146C465.706 151.785 465.702 152.413 465.455 153.03C465.208 153.647 464.715 154.094 463.976 154.371ZM448.507 166.43C447.862 165.806 447.353 165.177 446.978 164.543C446.591 163.936 446.293 163.353 446.083 162.794C445.723 161.835 445.559 160.974 445.592 160.21C445.631 159.466 445.836 158.797 446.205 158.202C446.602 157.62 447.15 157.107 447.849 156.663C448.548 156.218 449.387 155.812 450.366 155.445L455.549 153.5L454.088 149.605L457.144 148.459L459.988 156.039L451.269 159.31C450.43 159.625 449.857 160.011 449.55 160.468C449.271 160.937 449.266 161.531 449.536 162.25C449.663 162.59 449.857 162.984 450.116 163.434C450.396 163.876 450.788 164.344 451.293 164.838L448.507 166.43Z" fill="#05D58A"/>
<path d="M459.44 176.944C460.731 176.573 461.714 176.013 462.387 175.265C463.08 174.511 463.276 173.611 462.976 172.565C462.893 172.278 462.785 171.976 462.649 171.66C462.534 171.338 462.434 171.067 462.349 170.847L454.414 173.127C454.321 173.421 454.282 173.787 454.297 174.226C454.312 174.666 454.379 175.091 454.497 175.501C454.756 176.403 455.306 176.966 456.148 177.191C457.01 177.409 458.107 177.327 459.44 176.944ZM460.667 180.753C459.56 181.071 458.5 181.243 457.486 181.268C456.492 181.287 455.59 181.158 454.777 180.881C453.986 180.598 453.302 180.15 452.727 179.539C452.152 178.927 451.729 178.15 451.458 177.207C451.181 176.243 451.131 175.181 451.308 174.02L445.864 175.584L444.777 171.801L463.846 166.322C464.271 166.954 464.7 167.752 465.133 168.716C465.571 169.7 465.931 170.684 466.214 171.668C466.856 173.903 466.672 175.809 465.66 177.387C464.648 178.965 462.984 180.087 460.667 180.753Z" fill="#05D58A"/>
<path d="M467.431 188.009L466.764 184.651L469.965 184.015L470.633 187.373L474.336 186.638L475.731 190.373L471.4 191.234L472.628 197.417L469.427 198.053L468.198 191.87L462.235 193.055C461.691 193.163 461.262 193.302 460.948 193.474C460.634 193.645 460.401 193.843 460.25 194.069C460.099 194.295 460.02 194.55 460.011 194.834C460.002 195.119 460.031 195.428 460.097 195.763C460.168 196.119 460.243 196.441 460.322 196.73C460.405 197.04 460.495 197.326 460.591 197.59C460.712 197.87 460.854 198.147 461.017 198.419C461.184 198.712 461.386 199.02 461.624 199.342L458.403 200.537C457.969 199.884 457.606 199.151 457.314 198.339C457.026 197.548 456.806 196.765 456.652 195.991C456.473 195.091 456.388 194.281 456.398 193.562C456.407 192.842 456.573 192.2 456.896 191.636C457.219 191.071 457.732 190.589 458.435 190.188C459.16 189.783 460.139 189.458 461.374 189.213L467.431 188.009Z" fill="#05D58A"/>
<path d="M467.016 215.766L460.404 204.184L463.702 202.66L468.237 211.172L470.628 201.828L474.193 202.528L470.542 215.343L467.016 215.766Z" fill="#05D58A"/>
</svg>
